<svg id="chat-gray" xmlns="http://www.w3.org/2000/svg" width="16.304" height="16.304" viewBox="0 0 16.304 16.304">
  <path id="Path_2" data-name="Path 2" d="M20.511,14.059a.949.949,0,0,1,.129-.478,1.32,1.32,0,0,1,.082-.121A6.35,6.35,0,0,0,21.8,9.92,6.667,6.667,0,0,0,15,3.375,6.761,6.761,0,0,0,8.322,8.584a6.3,6.3,0,0,0-.145,1.34,6.648,6.648,0,0,0,6.7,6.627,8.071,8.071,0,0,0,1.85-.3c.443-.121.882-.282,1-.325a1.036,1.036,0,0,1,.364-.067,1.019,1.019,0,0,1,.4.078l2.222.788a.53.53,0,0,0,.153.039.312.312,0,0,0,.314-.314.5.5,0,0,0-.02-.106Z" transform="translate(-5.501 -3.375)" fill="#a5a0a0"/>
  <path id="Path_3" data-name="Path 3" d="M13.976,21.093c-.141.039-.321.082-.517.125a7.233,7.233,0,0,1-1.333.176,6.648,6.648,0,0,1-6.7-6.627,7.41,7.41,0,0,1,.059-.839c.024-.169.051-.337.09-.5s.086-.353.137-.525l-.314.278a5.832,5.832,0,0,0-2.022,4.386,5.767,5.767,0,0,0,.972,3.214c.09.137.141.243.125.314s-.466,2.43-.466,2.43a.314.314,0,0,0,.106.3.319.319,0,0,0,.2.071.281.281,0,0,0,.114-.024l2.2-.866a.612.612,0,0,1,.47.008,6.6,6.6,0,0,0,2.379.47,6.155,6.155,0,0,0,4.707-2.159s.125-.172.27-.376C14.305,21,14.141,21.05,13.976,21.093Z" transform="translate(-3.375 -7.592)" fill="#a5a0a0"/>
</svg>
