<svg xmlns="http://www.w3.org/2000/svg" width="92.42" height="67.237" viewBox="0 0 92.42 67.237">
  <g id="Group_6949" data-name="Group 6949" transform="translate(-203.5 -797.714)">
    <path id="Icon_awesome-user" data-name="Icon awesome-user" d="M25.916,29.618A14.809,14.809,0,1,0,11.107,14.809,14.808,14.808,0,0,0,25.916,29.618Zm10.366,3.7H34.351a20.14,20.14,0,0,1-16.869,0H15.55A15.554,15.554,0,0,0,0,48.871v4.813a5.555,5.555,0,0,0,5.553,5.553H46.279a5.555,5.555,0,0,0,5.553-5.553V48.871A15.554,15.554,0,0,0,36.283,33.321Z" transform="translate(244.088 801.714)" fill="#f8d56f"/>
    <g id="Icon_awesome-user-2" data-name="Icon awesome-user" transform="translate(207.5 801.714)" fill="#9d2058" stroke-linecap="square">
      <path d="M 46.27890396118164 61.23699569702148 L 5.553465366363525 61.23699569702148 C 1.38847541809082 61.23699569702148 -1.99999463558197 57.84852600097656 -1.99999463558197 53.68352508544922 L -1.99999463558197 48.87052536010742 C -1.99999463558197 46.50293731689453 -1.535524606704712 44.20475769042969 -0.6194846034049988 42.03983688354492 C 0.2647753655910492 39.95003509521484 1.530105352401733 38.07344436645508 3.14136528968811 36.46217727661133 C 4.752635478973389 34.85090637207031 6.629225254058838 33.58557510375977 8.719015121459961 32.70132446289062 C 10.88393497467041 31.78527641296387 13.18211555480957 31.3208065032959 15.54970550537109 31.3208065032959 L 17.48185539245605 31.3208065032959 L 17.91754531860352 31.3208065032959 L 18.31376457214355 31.50203514099121 C 20.73632621765137 32.61011505126953 23.29415512084961 33.17196655273438 25.91618537902832 33.17196655273438 C 28.54907608032227 33.17196655273438 31.10586547851562 32.610595703125 33.5155143737793 31.50345611572266 L 33.91303634643555 31.3208065032959 L 34.35051727294922 31.3208065032959 L 36.28265380859375 31.3208065032959 C 38.65024566650391 31.3208065032959 40.94842529296875 31.78527641296387 43.11334609985352 32.70131683349609 C 45.20314407348633 33.58557510375977 47.07974624633789 34.85090637207031 48.69100570678711 36.46217727661133 C 50.30227661132812 38.07343673706055 51.56760406494141 39.95003509521484 52.45186614990234 42.03983688354492 C 53.36790466308594 44.20475769042969 53.83237457275391 46.50293731689453 53.83237457275391 48.87052536010742 L 53.83237457275391 53.68352508544922 C 53.83237457275391 57.84852600097656 50.44390487670898 61.23699569702148 46.27890396118164 61.23699569702148 Z M 25.91618537902832 31.61849594116211 C 23.64763450622559 31.61849594116211 21.44596481323242 31.17383575439453 19.37235450744629 30.296875 C 17.37041473388672 29.45022583007812 15.57295513153076 28.23854637145996 14.02992534637451 26.69550514221191 C 12.48688507080078 25.15247535705566 11.27520561218262 23.35501670837402 10.42855548858643 21.35307502746582 C 9.551595687866211 19.27946662902832 9.106935501098633 17.07779502868652 9.106935501098633 14.80924606323242 C 9.106935501098633 12.540696144104 9.551595687866211 10.339035987854 10.42855548858643 8.265425682067871 C 11.27520561218262 6.263485908508301 12.48688507080078 4.466025829315186 14.02992534637451 2.922986030578613 C 15.57296562194824 1.379955887794495 17.37041473388672 0.1682759374380112 19.37235450744629 -0.6783740520477295 C 21.44596481323242 -1.555334091186523 23.64763450622559 -1.999994039535522 25.91618537902832 -1.999994039535522 C 28.18473625183105 -1.999994039535522 30.38640594482422 -1.555334091186523 32.46001434326172 -0.6783740520477295 C 34.46195602416992 0.1682759374380112 36.25940704345703 1.379955887794495 37.80244445800781 2.922986030578613 C 39.34548568725586 4.466025829315186 40.55716705322266 6.263485908508301 41.40381622314453 8.265425682067871 C 42.28077697753906 10.339035987854 42.72543716430664 12.540696144104 42.72543716430664 14.80924606323242 C 42.72543716430664 17.07779502868652 42.28077697753906 19.27946662902832 41.40381622314453 21.35307502746582 C 40.55716705322266 23.35501670837402 39.34548568725586 25.15247535705566 37.80244445800781 26.69550514221191 C 36.25941467285156 28.23854637145996 34.46195602416992 29.45022583007812 32.46001434326172 30.296875 C 30.38640594482422 31.17383575439453 28.18473625183105 31.61849594116211 25.91618537902832 31.61849594116211 Z" stroke="none"/>
      <path d="M 25.91618537902832 -3.814697265625e-06 C 17.73638534545898 -3.814697265625e-06 11.10694122314453 6.629451751708984 11.10694122314453 14.80924987792969 C 11.10694122314453 22.98904037475586 17.73638534545898 29.61849594116211 25.91618537902832 29.61849594116211 C 34.09598541259766 29.61849594116211 40.72542953491211 22.98904037475586 40.72542953491211 14.80924987792969 C 40.72542953491211 6.629451751708984 34.09598541259766 -3.814697265625e-06 25.91618537902832 -3.814697265625e-06 M 15.54970932006836 33.32080841064453 C 6.964973449707031 33.32080841064453 -3.814697265625e-06 40.28578567504883 -3.814697265625e-06 48.87051773071289 L -3.814697265625e-06 53.68351745605469 C -3.814697265625e-06 56.74949645996094 2.487483978271484 59.23699569702148 5.553462982177734 59.23699569702148 L 46.27889633178711 59.23699569702148 C 49.34487533569336 59.23699569702148 51.83237457275391 56.74949645996094 51.83237457275391 53.68351745605469 L 51.83237457275391 48.87051773071289 C 51.83237457275391 40.28578567504883 44.86739730834961 33.32080841064453 36.28265380859375 33.32080841064453 L 34.35050964355469 33.32080841064453 C 31.78203010559082 34.50091552734375 28.92430686950684 35.17196273803711 25.91618537902832 35.17196273803711 C 22.90805244445801 35.17196273803711 20.0619068145752 34.50091552734375 17.48185348510742 33.32080841064453 L 15.54970932006836 33.32080841064453 M 25.91618537902832 -4.000003814697266 C 28.45383071899414 -4.000003814697266 30.9175968170166 -3.502204895019531 33.23904037475586 -2.520427703857422 C 35.47940826416016 -1.57293701171875 37.49057388305664 -0.217315673828125 39.2166633605957 1.508773803710938 C 40.94275283813477 3.23486328125 42.29836273193359 5.246028900146484 43.24585342407227 7.486396789550781 C 44.22763061523438 9.807842254638672 44.72542953491211 12.2716064453125 44.72542953491211 14.80924987792969 C 44.72542953491211 17.34689712524414 44.22763061523438 19.81064987182617 43.24585342407227 22.13209533691406 C 42.29836273193359 24.37247467041016 40.94275283813477 26.38362884521484 39.2166633605957 28.10971832275391 C 38.76807403564453 28.55830764770508 38.30039215087891 28.98174095153809 37.81427764892578 29.37962532043457 C 39.91139221191406 29.54155731201172 41.94978713989258 30.03731536865234 43.89270782470703 30.85941886901855 C 46.22079467773438 31.84450721740723 48.31098556518555 33.25373077392578 50.10521697998047 35.0479621887207 C 51.89945220947266 36.84218597412109 53.30867385864258 38.932373046875 54.29376220703125 41.26045989990234 C 55.3147087097168 43.67331695556641 55.83237457275391 46.23371887207031 55.83237457275391 48.87051773071289 L 55.83237457275391 53.68351745605469 C 55.83237457275391 58.95131683349609 51.54669570922852 63.23699569702148 46.27889633178711 63.23699569702148 L 5.553462982177734 63.23699569702148 C 0.2856636047363281 63.23699569702148 -4.000003814697266 58.95131683349609 -4.000003814697266 53.68351745605469 L -4.000003814697266 48.87051773071289 C -4.000003814697266 46.23371887207031 -3.482337951660156 43.67331695556641 -2.461391448974609 41.26045989990234 C -1.476303100585938 38.932373046875 -0.06708145141601562 36.84218597412109 1.727153778076172 35.0479621887207 C 3.521373748779297 33.25373077392578 5.611564636230469 31.84450721740723 7.939651489257812 30.85941886901855 C 9.882572174072266 30.03731536865234 11.92098236083984 29.54155731201172 14.01809310913086 29.37962532043457 C 13.53197860717773 28.98174095153809 13.06429672241211 28.55830764770508 12.61570739746094 28.10971832275391 C 10.88961791992188 26.38362884521484 9.534008026123047 24.37247467041016 8.586517333984375 22.13209533691406 C 7.604740142822266 19.81064987182617 7.106941223144531 17.34689712524414 7.106941223144531 14.80924987792969 C 7.106941223144531 12.2716064453125 7.604740142822266 9.807842254638672 8.586517333984375 7.486396789550781 C 9.534008026123047 5.246028900146484 10.88961791992188 3.23486328125 12.61570739746094 1.508773803710938 C 14.341796875 -0.217315673828125 16.35296249389648 -1.57293701171875 18.59333038330078 -2.520427703857422 C 20.91477394104004 -3.502204895019531 23.3785400390625 -4.000003814697266 25.91618537902832 -4.000003814697266 Z" stroke="none" fill="#fff"/>
    </g>
  </g>
</svg>
