<svg id="Слой_1" data-name="Слой 1" xmlns="http://www.w3.org/2000/svg" viewBox="0 0 452.52 508.94"><defs><style>.cls-1{fill:#fff2c9;}.cls-2,.cls-3{fill:#ffda9f;}.cls-3,.cls-4{stroke:#000;stroke-miterlimit:10;}.cls-3{stroke-width:7px;}.cls-4,.cls-5{fill:#f43000;}.cls-4{stroke-width:5px;}</style></defs><rect class="cls-1" x="80.76" y="100.94" width="365" height="406"/><path d="M1151,327V729H790V327h361m4-4H786V733h369V323Z" transform="translate(-707.24 -224.06)"/><rect class="cls-2" x="747" y="274" width="373" height="361" transform="translate(-461.31 1008.41) rotate(-74.49)"/><path d="M810.84,229l344,95.46L1056.16,680l-344-95.46L810.84,229m-2.79-4.93L707.24,587.33,1059,684.94l100.81-363.27L808.05,224.06Z" transform="translate(-707.24 -224.06)"/><line class="cls-3" x1="131.76" y1="112.94" x2="367.76" y2="177.94"/><line class="cls-3" x1="115.59" y1="173.59" x2="351.59" y2="238.59"/><line class="cls-3" x1="98.59" y1="233.59" x2="334.59" y2="298.59"/><ellipse class="cls-4" cx="1067.94" cy="303.43" rx="31.3" ry="38.19" transform="translate(-483.6 800.29) rotate(-56.35)"/><ellipse class="cls-4" cx="1085.42" cy="278.21" rx="24.52" ry="28" transform="translate(-471.55 784.56) rotate(-55.06)"/><line class="cls-5" x1="341.26" y1="103.44" x2="320.26" y2="128.44"/><polygon points="345.09 106.65 320.26 128.44 337.43 100.22 345.09 106.65"/></svg>