<?xml version="1.0" encoding="utf-8"?>
<!-- Generator: Adobe Illustrator 23.0.5, SVG Export Plug-In . SVG Version: 6.00 Build 0)  -->
<svg version="1.1" id="Layer_1" xmlns="http://www.w3.org/2000/svg" xmlns:xlink="http://www.w3.org/1999/xlink" x="0px" y="0px"
	 viewBox="0 0 600 600" style="enable-background:new 0 0 600 600;" xml:space="preserve">
<style type="text/css">
	.st0{fill:url(#SVGID_1_);}
	.st1{fill:url(#SVGID_2_);}
	.st2{fill:url(#SVGID_3_);}
	.st3{fill:url(#SVGID_4_);}
	.st4{fill:#C40375;}
</style>
<linearGradient id="SVGID_1_" gradientUnits="userSpaceOnUse" x1="301.6538" y1="240.6471" x2="301.6538" y2="290.7494" gradientTransform="matrix(0.9908 0.1351 -0.1351 0.9908 45.1633 -39.6841)">
	<stop  offset="0" style="stop-color:#FCE348"/>
	<stop  offset="1" style="stop-color:#FAB803"/>
</linearGradient>
<path class="st0" d="M333.27,260.48l-9.44,9.58l2.53,13.21c0.54,2.82-2.37,5.03-4.94,3.74l-12.03-6.03l-11.78,6.5
	c-2.51,1.37-5.51-0.72-5.09-3.55l2.02-13.3l-9.82-9.2c-2.09-1.96-1.03-5.46,1.8-5.93l13.27-2.2l5.71-12.19
	c1.22-2.58,4.88-2.66,6.2-0.12l6.19,11.94l13.35,1.68C334.08,254.98,335.28,258.45,333.27,260.48z"/>
<linearGradient id="SVGID_2_" gradientUnits="userSpaceOnUse" x1="406.4783" y1="223.9455" x2="406.4783" y2="239.9284" gradientTransform="matrix(0.7725 -0.2553 0.2824 0.8546 -103.5157 154.2938)">
	<stop  offset="0" style="stop-color:#FCE348"/>
	<stop  offset="1" style="stop-color:#FAB803"/>
</linearGradient>
<path class="st1" d="M281.37,244.8l-1.02,3.59l2.21,3.13c0.47,0.67,0.07,1.58-0.69,1.55l-3.53-0.15l-1.94,3.07
	c-0.41,0.65-1.37,0.46-1.62-0.32l-1.16-3.68l-3.41-1.23c-0.73-0.26-0.91-1.29-0.31-1.75l2.81-2.13l-0.17-3.83
	c-0.03-0.81,0.81-1.26,1.42-0.76l2.9,2.37l3.3-1.13C280.88,243.28,281.58,244.03,281.37,244.8z"/>
<linearGradient id="SVGID_3_" gradientUnits="userSpaceOnUse" x1="476.71" y1="261.6631" x2="476.71" y2="277.646" gradientTransform="matrix(0.7725 -0.2553 0.2824 0.8546 -103.5157 154.2938)">
	<stop  offset="0" style="stop-color:#FCE348"/>
	<stop  offset="1" style="stop-color:#FAB803"/>
</linearGradient>
<path class="st2" d="M346.28,259.1l-1.02,3.59l2.21,3.13c0.47,0.67,0.07,1.58-0.69,1.55l-3.53-0.15l-1.94,3.07
	c-0.41,0.65-1.37,0.46-1.62-0.32l-1.16-3.68l-3.41-1.23c-0.73-0.26-0.91-1.29-0.31-1.75l2.81-2.13l-0.17-3.83
	c-0.03-0.81,0.81-1.26,1.42-0.76l2.9,2.37l3.3-1.13C345.79,257.58,346.49,258.34,346.28,259.1z"/>
<linearGradient id="SVGID_4_" gradientUnits="userSpaceOnUse" x1="468.4054" y1="228.1164" x2="468.4054" y2="244.0993" gradientTransform="matrix(0.7725 -0.2553 0.2824 0.8546 -103.5157 154.2938)">
	<stop  offset="0" style="stop-color:#FCE348"/>
	<stop  offset="1" style="stop-color:#FAB803"/>
</linearGradient>
<path class="st3" d="M330.39,232.55l-1.02,3.59l2.21,3.13c0.47,0.67,0.07,1.58-0.69,1.55l-3.53-0.15l-1.94,3.07
	c-0.41,0.65-1.37,0.46-1.62-0.32l-1.16-3.68l-3.41-1.23c-0.73-0.26-0.91-1.29-0.31-1.75l2.81-2.13l-0.17-3.83
	c-0.03-0.81,0.81-1.26,1.42-0.76l2.9,2.37l3.3-1.13C329.9,231.03,330.6,231.79,330.39,232.55z"/>
<path class="st4" d="M314.78,299.56v28.49c0,0.99-0.77,1.8-1.73,1.8h-10.12c-0.77,0-1.39-0.62-1.39-1.39v-28.9
	c0-0.76,0.62-1.39,1.39-1.39h10.47C314.17,298.18,314.78,298.8,314.78,299.56z"/>
<path class="st4" d="M114.27,307.81h-11.04c-0.59,0-1.11,0.37-1.31,0.93c-1.87,5.46-6.3,8.72-12.62,8.72
	c-8.71,0-14.74-6.43-14.74-15.3s6.03-15.29,14.74-15.29c6.31,0,10.74,3.27,12.62,8.72c0.19,0.56,0.72,0.93,1.31,0.93h11.04
	c0.77,0,1.4-0.63,1.4-1.4c0-0.1-0.01-0.2-0.03-0.29c-2.71-12.26-12.75-20.35-26.26-20.35c-16.22,0-28.45,11.81-28.24,28.09
	c0.2,15.15,12.87,27.18,28.02,27.28c13.61,0.09,23.75-8.03,26.48-20.34c0.16-0.76-0.31-1.5-1.07-1.67
	C114.47,307.82,114.37,307.81,114.27,307.81z"/>
<path class="st4" d="M152.05,274.49c-16.07,0-28.23,12.15-28.23,27.68s12.16,27.68,28.23,27.68s28.23-12.16,28.23-27.68
	S168.13,274.49,152.05,274.49z M152.05,317.45c-8.62,0-14.82-6.9-14.82-15.29s6.19-15.29,14.82-15.29c8.63,0,14.82,6.9,14.82,15.29
	C166.87,310.56,160.68,317.45,152.05,317.45z"/>
<path class="st4" d="M236.05,276.55h-10.39c-0.77,0-1.39,0.63-1.39,1.39v28.64l-25.3-29.55c-0.27-0.31-0.65-0.49-1.06-0.49h-8.08
	c-0.77,0-1.39,0.63-1.39,1.39v50.51c0,0.77,0.62,1.39,1.39,1.39h10.47c0.77,0,1.39-0.62,1.39-1.39v-27.85l25.14,28.77
	c0.26,0.3,0.65,0.47,1.05,0.47h8.17c0.77-0.01,1.38-0.63,1.38-1.4v-50.53C237.42,277.17,236.81,276.55,236.05,276.55z"/>
<path class="st4" d="M491.16,327.91l-21.4-50.53c-0.22-0.51-0.73-0.84-1.28-0.84h-10.86c-0.56,0-1.06,0.33-1.28,0.85l-21.48,50.52
	c-0.3,0.71,0.03,1.52,0.74,1.82c0.17,0.07,0.36,0.11,0.54,0.11h11.04c0.58,0,1.09-0.35,1.3-0.89l3.2-8.27h22.58l3.27,8.29
	c0.21,0.53,0.72,0.88,1.3,0.88h11.07c0.77,0,1.39-0.63,1.38-1.4C491.27,328.27,491.23,328.09,491.16,327.91z M456.01,309.62
	l6.96-17.96l6.98,17.96L456.01,309.62z"/>
<path class="st4" d="M522.79,298.4l-7.45-1.57c-4.24-0.86-6.43-2.19-6.43-5.25c0-3.45,3.06-5.25,7.77-5.25
	c5.14,0,7.61,2.27,8.55,5.69c0.16,0.61,0.71,1.04,1.34,1.05h10.63c0.77,0,1.39-0.61,1.39-1.38c0-0.07-0.01-0.15-0.02-0.22
	c-2.1-12.99-14.31-15.96-22.61-15.96c-12.55,0-21.17,6.58-21.17,17.25c0,8.47,4.94,13.25,15.44,15.53l8.78,1.88
	c4.63,0.86,5.64,2.82,5.64,4.7c0,2.98-2.82,4.78-7.52,4.78c-5.81,0-9.67-2.55-10.89-6.67c-0.17-0.6-0.71-1.01-1.34-1.02h-10.64
	c-0.77,0-1.39,0.62-1.39,1.39c0,0.07,0.01,0.14,0.02,0.21c1.95,12.04,12.37,17.29,23.87,17.29c13.33,0,22.11-6.59,22.11-17.25
	C538.86,304.44,532.59,300.44,522.79,298.4z"/>
<path class="st4" d="M260.09,288.22v11.28h21.5c0.77,0,1.39,0.62,1.39,1.39v8.76c0,0.77-0.63,1.39-1.39,1.39h-21.5v17.41
	c0,0.77-0.62,1.39-1.39,1.39l0,0h-10.47c-0.77,0.01-1.4-0.61-1.41-1.38c0,0,0-0.01,0-0.01v-50.53c0-0.77,0.63-1.39,1.39-1.39h37.05
	c0.77,0,1.39,0.62,1.39,1.39l0,0v8.9c0,0.77-0.62,1.39-1.39,1.39l0,0H260.09z"/>
<path class="st4" d="M403.22,288.05v9.74h25.66c0.77,0,1.39,0.63,1.39,1.39v8.51c0,0.77-0.62,1.39-1.39,1.39l0,0h-25.66v9.26h25.66
	c0.77,0,1.39,0.62,1.39,1.39l0,0v8.71c0,0.77-0.62,1.39-1.39,1.39l0,0h-37.52c-0.77,0-1.39-0.62-1.39-1.39v-50.53
	c0-0.77,0.63-1.39,1.39-1.39h37.52c0.77,0,1.39,0.62,1.39,1.39l0,0v8.74c0,0.77-0.62,1.39-1.39,1.39l0,0H403.22z"/>
<path class="st4" d="M381.83,303.05c0,15.84-12,26.8-28.77,26.8h-20.03c-0.77,0-1.39-0.62-1.39-1.39v-28.89
	c0-0.76,0.62-1.39,1.39-1.39h10.47c0.77,0.01,1.38,0.63,1.38,1.39v18.37h8.18c8.68,0,15.36-6.44,15.36-14.89
	c0.02-5.41-3-10.36-7.82-12.8c-2.34-1.2-4.93-1.81-7.54-1.79h-20.04c-0.76,0-1.39-0.63-1.39-1.4v-9.12c0-0.77,0.63-1.39,1.39-1.39
	h20.04c14.81,0,25.9,8.49,28.28,21.24C381.66,299.52,381.83,301.29,381.83,303.05z"/>
</svg>
