<?xml version="1.0" encoding="utf-8"?>
<!-- Generator: Adobe Illustrator 23.0.5, SVG Export Plug-In . SVG Version: 6.00 Build 0)  -->
<svg version="1.1" id="Layer_1" xmlns="http://www.w3.org/2000/svg" xmlns:xlink="http://www.w3.org/1999/xlink" x="0px" y="0px"
	 viewBox="0 0 600 60" style="enable-background:new 0 0 600 60;" xml:space="preserve">
<style type="text/css">
	.st0{fill:url(#SVGID_1_);}
	.st1{fill:url(#SVGID_2_);}
	.st2{fill:url(#SVGID_3_);}
	.st3{fill:url(#SVGID_4_);}
	.st4{fill:#C31B77;}
</style>
<linearGradient id="SVGID_1_" gradientUnits="userSpaceOnUse" x1="295.8969" y1="12.6844" x2="295.8969" y2="36.7477" gradientTransform="matrix(0.9908 0.1351 -0.1351 0.9908 8.6858 -42.1596)">
	<stop  offset="0" style="stop-color:#FBE349"/>
	<stop  offset="1" style="stop-color:#F8B817"/>
</linearGradient>
<path class="st0" d="M310.59,20.46l-4.53,4.6l1.22,6.35c0.26,1.35-1.14,2.41-2.37,1.8l-5.78-2.89l-5.66,3.12
	c-1.21,0.66-2.65-0.34-2.44-1.7l0.97-6.39l-4.71-4.42c-1.01-0.94-0.5-2.62,0.86-2.85l6.37-1.05l2.74-5.85
	c0.59-1.24,2.34-1.28,2.98-0.06l2.97,5.74l6.41,0.81C310.98,17.82,311.56,19.48,310.59,20.46z"/>
<linearGradient id="SVGID_2_" gradientUnits="userSpaceOnUse" x1="400.8316" y1="-1.3792" x2="400.8316" y2="6.2971" gradientTransform="matrix(0.7725 -0.2553 0.2824 0.8546 -27.2635 115.0471)">
	<stop  offset="0" style="stop-color:#FBE349"/>
	<stop  offset="1" style="stop-color:#F8B817"/>
</linearGradient>
<path class="st1" d="M285.66,12.92l-0.49,1.73l1.06,1.5c0.23,0.32,0.03,0.76-0.33,0.74l-1.69-0.07l-0.93,1.47
	c-0.2,0.31-0.66,0.22-0.78-0.15l-0.56-1.77l-1.64-0.59c-0.35-0.13-0.44-0.62-0.15-0.84l1.35-1.02l-0.08-1.84
	c-0.02-0.39,0.39-0.61,0.68-0.36l1.39,1.14l1.59-0.54C285.43,12.19,285.77,12.56,285.66,12.92z"/>
<linearGradient id="SVGID_3_" gradientUnits="userSpaceOnUse" x1="434.5627" y1="16.7359" x2="434.5627" y2="24.4122" gradientTransform="matrix(0.7725 -0.2553 0.2824 0.8546 -27.2635 115.0471)">
	<stop  offset="0" style="stop-color:#FBE349"/>
	<stop  offset="1" style="stop-color:#F8B817"/>
</linearGradient>
<path class="st2" d="M316.84,19.79l-0.49,1.73l1.06,1.5c0.23,0.32,0.03,0.76-0.33,0.74l-1.69-0.07l-0.93,1.47
	c-0.2,0.31-0.66,0.22-0.78-0.15l-0.56-1.77l-1.64-0.59c-0.35-0.13-0.44-0.62-0.15-0.84l1.35-1.02l-0.08-1.84
	c-0.02-0.39,0.39-0.61,0.68-0.36l1.39,1.14l1.59-0.54C316.61,19.07,316.94,19.43,316.84,19.79z"/>
<linearGradient id="SVGID_4_" gradientUnits="userSpaceOnUse" x1="430.5741" y1="0.624" x2="430.5741" y2="8.3003" gradientTransform="matrix(0.7725 -0.2553 0.2824 0.8546 -27.2635 115.0471)">
	<stop  offset="0" style="stop-color:#FBE349"/>
	<stop  offset="1" style="stop-color:#F8B817"/>
</linearGradient>
<path class="st3" d="M309.21,7.04l-0.49,1.73l1.06,1.5c0.23,0.32,0.03,0.76-0.33,0.74l-1.69-0.07l-0.93,1.47
	c-0.2,0.31-0.66,0.22-0.78-0.15l-0.56-1.77l-1.64-0.59c-0.35-0.13-0.44-0.62-0.15-0.84l1.35-1.02l-0.08-1.84
	c-0.02-0.39,0.39-0.61,0.68-0.36l1.39,1.14l1.59-0.54C308.97,6.31,309.31,6.68,309.21,7.04z"/>
<path class="st4" d="M301.71,39.23v13.69c0,0.48-0.37,0.86-0.83,0.86h-4.86c-0.37,0-0.67-0.3-0.67-0.67V39.23
	c0-0.36,0.3-0.67,0.67-0.67h5.03C301.42,38.56,301.71,38.86,301.71,39.23z"/>
<path class="st4" d="M205.41,43.19h-5.3c-0.28,0-0.54,0.18-0.63,0.45c-0.9,2.62-3.03,4.19-6.06,4.19c-4.18,0-7.08-3.09-7.08-7.35
	s2.9-7.35,7.08-7.35c3.03,0,5.16,1.57,6.06,4.19c0.09,0.27,0.35,0.45,0.63,0.45h5.3c0.37,0,0.67-0.3,0.67-0.67
	c0-0.05-0.01-0.09-0.02-0.14c-1.3-5.89-6.12-9.77-12.61-9.77c-7.79,0-13.66,5.67-13.56,13.49c0.09,7.28,6.18,13.05,13.46,13.1
	c6.54,0.04,11.41-3.86,12.72-9.77c0.08-0.36-0.15-0.72-0.51-0.8C205.51,43.19,205.46,43.19,205.41,43.19z"/>
<path class="st4" d="M223.56,27.18c-7.72,0-13.56,5.84-13.56,13.29s5.84,13.29,13.56,13.29c7.72,0,13.56-5.84,13.56-13.29
	S231.28,27.18,223.56,27.18z M223.56,47.82c-4.14,0-7.12-3.31-7.12-7.34s2.97-7.34,7.12-7.34c4.14,0,7.12,3.31,7.12,7.34
	S227.7,47.82,223.56,47.82z"/>
<path class="st4" d="M263.9,28.17h-4.99c-0.37,0-0.67,0.3-0.67,0.67V42.6l-12.15-14.19c-0.13-0.15-0.31-0.23-0.51-0.23h-3.88
	c-0.37,0-0.67,0.3-0.67,0.67V53.1c0,0.37,0.3,0.67,0.67,0.67h5.03c0.37,0,0.67-0.3,0.67-0.67V39.73l12.08,13.82
	c0.13,0.14,0.31,0.23,0.5,0.23h3.93c0.37,0,0.66-0.3,0.66-0.67V28.84C264.56,28.47,264.26,28.18,263.9,28.17z"/>
<path class="st4" d="M386.42,52.84l-10.28-24.27c-0.11-0.24-0.35-0.4-0.62-0.4h-5.22c-0.27,0-0.51,0.16-0.61,0.41l-10.32,24.26
	c-0.14,0.34,0.01,0.73,0.35,0.88c0.08,0.04,0.17,0.05,0.26,0.05h5.3c0.28,0,0.52-0.17,0.62-0.43l1.54-3.97h10.85l1.57,3.98
	c0.1,0.26,0.35,0.42,0.62,0.42h5.32c0.37,0,0.67-0.3,0.66-0.67C386.48,53.02,386.46,52.93,386.42,52.84z M369.54,44.06l3.34-8.62
	l3.35,8.63L369.54,44.06z"/>
<path class="st4" d="M401.62,38.67l-3.58-0.75c-2.04-0.41-3.09-1.05-3.09-2.52c0-1.66,1.47-2.52,3.73-2.52
	c2.47,0,3.66,1.09,4.1,2.73c0.08,0.29,0.34,0.5,0.65,0.5h5.1c0.37,0,0.67-0.29,0.67-0.66c0-0.04,0-0.07-0.01-0.11
	c-1.01-6.24-6.87-7.67-10.86-7.67c-6.03,0-10.17,3.16-10.17,8.28c0,4.07,2.37,6.36,7.42,7.46l4.22,0.9
	c2.22,0.41,2.71,1.35,2.71,2.26c0,1.43-1.35,2.3-3.61,2.3c-2.79,0-4.64-1.23-5.23-3.2c-0.08-0.29-0.34-0.49-0.64-0.49h-5.11
	c-0.37,0-0.67,0.3-0.67,0.67c0,0.03,0,0.07,0.01,0.1c0.94,5.78,5.94,8.31,11.46,8.31c6.4,0,10.62-3.16,10.62-8.29
	C409.34,41.57,406.32,39.65,401.62,38.67z"/>
<path class="st4" d="M275.45,33.78v5.42h10.33c0.37,0,0.67,0.3,0.67,0.67v4.21c0,0.37-0.3,0.67-0.67,0.67h-10.33v8.36
	c0,0.37-0.3,0.67-0.67,0.67l0,0h-5.03c-0.37,0-0.67-0.29-0.68-0.66c0,0,0,0,0,0V28.84c0-0.37,0.3-0.67,0.67-0.67h17.79
	c0.37,0,0.67,0.3,0.67,0.67v0v4.28c0,0.37-0.3,0.67-0.67,0.67l0,0H275.45z"/>
<path class="st4" d="M344.19,33.7v4.68h12.33c0.37,0,0.67,0.3,0.67,0.67v4.09c0,0.37-0.3,0.67-0.67,0.67l0,0h-12.33v4.45h12.33
	c0.37,0,0.67,0.3,0.67,0.67v0v4.19c0,0.37-0.3,0.67-0.67,0.67l0,0h-18.02c-0.37,0-0.67-0.3-0.67-0.67V28.83
	c0-0.37,0.3-0.67,0.67-0.67h18.02c0.37,0,0.67,0.3,0.67,0.67v0v4.2c0,0.37-0.3,0.67-0.67,0.67l0,0H344.19z"/>
<path class="st4" d="M333.92,40.9c0,7.61-5.76,12.87-13.82,12.87h-9.62c-0.37,0-0.67-0.3-0.67-0.67V39.23c0-0.37,0.3-0.67,0.67-0.67
	h5.03c0.37,0,0.66,0.3,0.66,0.67v8.82h3.93c4.17,0,7.38-3.09,7.38-7.15c0.01-2.6-1.44-4.98-3.76-6.15
	c-1.12-0.58-2.37-0.87-3.62-0.86h-9.62c-0.37,0-0.67-0.3-0.67-0.67v-4.38c0-0.37,0.3-0.67,0.67-0.67h9.62
	c7.11,0,12.44,4.08,13.58,10.2C333.83,39.21,333.92,40.06,333.92,40.9z"/>
</svg>
