<?xml version="1.0" encoding="utf-8"?>
<!-- Generator: Adobe Illustrator 23.0.5, SVG Export Plug-In . SVG Version: 6.00 Build 0)  -->
<svg version="1.1" id="Layer_1" xmlns="http://www.w3.org/2000/svg" xmlns:xlink="http://www.w3.org/1999/xlink" x="0px" y="0px"
	 viewBox="0 0 600 70" style="enable-background:new 0 0 600 70;" xml:space="preserve">
<style type="text/css">
	.st0{fill:url(#SVGID_1_);}
	.st1{fill:url(#SVGID_2_);}
	.st2{fill:url(#SVGID_3_);}
	.st3{fill:url(#SVGID_4_);}
	.st4{fill:#C31B77;}
</style>
<linearGradient id="SVGID_1_" gradientUnits="userSpaceOnUse" x1="301.7076" y1="13.5902" x2="301.7076" y2="41.6671" gradientTransform="matrix(0.9908 0.1351 -0.1351 0.9908 9.3613 -42.1137)">
	<stop  offset="0" style="stop-color:#FBE349"/>
	<stop  offset="1" style="stop-color:#F8B817"/>
</linearGradient>
<path class="st0" d="M318.65,23.86l-5.29,5.37l1.42,7.4c0.31,1.58-1.33,2.82-2.77,2.1l-6.74-3.38l-6.6,3.64
	c-1.41,0.77-3.09-0.4-2.85-1.99l1.13-7.45l-5.5-5.16c-1.17-1.1-0.58-3.06,1.01-3.32l7.44-1.23l3.2-6.83
	c0.68-1.45,2.74-1.49,3.47-0.07l3.47,6.69l7.48,0.94C319.1,20.78,319.77,22.72,318.65,23.86z"/>
<linearGradient id="SVGID_2_" gradientUnits="userSpaceOnUse" x1="405.8507" y1="1.5176" x2="405.8507" y2="10.4743" gradientTransform="matrix(0.7725 -0.2553 0.2824 0.8546 -28.6756 115.7739)">
	<stop  offset="0" style="stop-color:#FBE349"/>
	<stop  offset="1" style="stop-color:#F8B817"/>
</linearGradient>
<path class="st1" d="M289.56,15.08l-0.57,2.01l1.24,1.75c0.26,0.37,0.04,0.89-0.39,0.87l-1.98-0.08l-1.09,1.72
	c-0.23,0.36-0.77,0.26-0.91-0.18l-0.65-2.06l-1.91-0.69c-0.41-0.15-0.51-0.73-0.17-0.98l1.57-1.19l-0.09-2.15
	c-0.02-0.46,0.45-0.71,0.8-0.43l1.62,1.33l1.85-0.64C289.29,14.22,289.68,14.65,289.56,15.08z"/>
<linearGradient id="SVGID_3_" gradientUnits="userSpaceOnUse" x1="445.2079" y1="22.6542" x2="445.2079" y2="31.6108" gradientTransform="matrix(0.7725 -0.2553 0.2824 0.8546 -28.6756 115.7739)">
	<stop  offset="0" style="stop-color:#FBE349"/>
	<stop  offset="1" style="stop-color:#F8B817"/>
</linearGradient>
<path class="st2" d="M325.93,23.09l-0.57,2.01l1.24,1.75c0.26,0.37,0.04,0.89-0.39,0.87l-1.98-0.08l-1.09,1.72
	c-0.23,0.36-0.77,0.26-0.91-0.18l-0.65-2.06l-1.91-0.69c-0.41-0.15-0.51-0.73-0.17-0.98l1.57-1.19l-0.09-2.15
	c-0.02-0.46,0.45-0.71,0.8-0.43l1.62,1.33l1.85-0.64C325.66,22.24,326.05,22.66,325.93,23.09z"/>
<linearGradient id="SVGID_4_" gradientUnits="userSpaceOnUse" x1="440.554" y1="3.855" x2="440.554" y2="12.8116" gradientTransform="matrix(0.7725 -0.2553 0.2824 0.8546 -28.6756 115.7739)">
	<stop  offset="0" style="stop-color:#FBE349"/>
	<stop  offset="1" style="stop-color:#F8B817"/>
</linearGradient>
<path class="st3" d="M317.03,8.21l-0.57,2.01l1.24,1.75c0.26,0.37,0.04,0.89-0.39,0.87l-1.98-0.08l-1.09,1.72
	c-0.23,0.36-0.77,0.26-0.91-0.18l-0.65-2.06l-1.91-0.69c-0.41-0.15-0.51-0.73-0.17-0.98l1.57-1.19l-0.09-2.15
	c-0.02-0.46,0.45-0.71,0.8-0.43l1.62,1.33l1.85-0.64C316.76,7.36,317.15,7.79,317.03,8.21z"/>
<path class="st4" d="M308.28,45.77v15.97c0,0.56-0.43,1.01-0.97,1.01h-5.67c-0.43,0-0.78-0.35-0.78-0.78v-16.2
	c0-0.43,0.35-0.78,0.78-0.78h5.87C307.94,44.99,308.28,45.34,308.28,45.77z"/>
<path class="st4" d="M195.92,50.38h-6.19c-0.33,0-0.62,0.21-0.73,0.52c-1.05,3.06-3.53,4.89-7.07,4.89c-4.88,0-8.26-3.6-8.26-8.57
	s3.38-8.57,8.26-8.57c3.54,0,6.02,1.83,7.07,4.89c0.11,0.31,0.4,0.52,0.73,0.52h6.19c0.43,0,0.78-0.35,0.78-0.78
	c0-0.06-0.01-0.11-0.02-0.16c-1.52-6.87-7.15-11.4-14.72-11.4c-9.09,0-15.94,6.62-15.82,15.74c0.11,8.49,7.21,15.23,15.7,15.29
	c7.63,0.05,13.31-4.5,14.84-11.4c0.09-0.42-0.18-0.84-0.6-0.94C196.03,50.39,195.97,50.38,195.92,50.38z"/>
<path class="st4" d="M217.09,31.71c-9.01,0-15.82,6.81-15.82,15.51s6.81,15.51,15.82,15.51s15.82-6.81,15.82-15.51
	S226.1,31.71,217.09,31.71z M217.09,55.79c-4.83,0-8.3-3.87-8.3-8.57s3.47-8.57,8.3-8.57s8.31,3.86,8.31,8.57
	S221.93,55.79,217.09,55.79z"/>
<path class="st4" d="M264.16,32.87h-5.82c-0.43,0-0.78,0.35-0.78,0.78V49.7l-14.18-16.56c-0.15-0.17-0.37-0.27-0.59-0.27h-4.53
	c-0.43,0-0.78,0.35-0.78,0.78v28.31c0,0.43,0.35,0.78,0.78,0.78h5.87c0.43,0,0.78-0.35,0.78-0.78v-15.6L259,62.47
	c0.15,0.17,0.36,0.27,0.59,0.27h4.58c0.43,0,0.78-0.35,0.77-0.78V33.64C264.93,33.22,264.59,32.87,264.16,32.87z"/>
<path class="st4" d="M407.12,61.65l-11.99-28.32c-0.12-0.29-0.41-0.47-0.72-0.47h-6.09c-0.31,0-0.6,0.19-0.72,0.48l-12.04,28.31
	c-0.17,0.4,0.02,0.85,0.41,1.02c0.1,0.04,0.2,0.06,0.3,0.06h6.18c0.32,0,0.61-0.2,0.73-0.5l1.8-4.64h12.65l1.83,4.65
	c0.12,0.3,0.41,0.5,0.73,0.49h6.2c0.43,0,0.78-0.35,0.78-0.78C407.19,61.85,407.16,61.75,407.12,61.65z M387.42,51.4l3.9-10.06
	l3.91,10.06L387.42,51.4z"/>
<path class="st4" d="M424.85,45.12l-4.17-0.88c-2.38-0.48-3.61-1.23-3.61-2.94c0-1.93,1.71-2.94,4.35-2.94
	c2.88,0,4.26,1.27,4.79,3.19c0.09,0.34,0.4,0.58,0.75,0.59h5.96c0.43,0,0.78-0.34,0.78-0.77c0-0.04,0-0.08-0.01-0.12
	c-1.18-7.28-8.02-8.95-12.67-8.95c-7.03,0-11.86,3.69-11.86,9.67c0,4.75,2.77,7.43,8.65,8.7l4.92,1.05
	c2.59,0.48,3.16,1.58,3.16,2.64c0,1.67-1.58,2.68-4.22,2.68c-3.25,0-5.42-1.43-6.1-3.74c-0.1-0.34-0.4-0.57-0.75-0.57h-5.96
	c-0.43,0-0.78,0.35-0.78,0.78c0,0.04,0,0.08,0.01,0.12c1.09,6.75,6.93,9.69,13.37,9.69c7.47,0,12.39-3.69,12.39-9.67
	C433.86,48.5,430.34,46.26,424.85,45.12z"/>
<path class="st4" d="M277.64,39.41v6.32h12.05c0.43,0,0.78,0.35,0.78,0.78v4.91c0,0.43-0.35,0.78-0.78,0.78h-12.05v9.76
	c0,0.43-0.35,0.78-0.78,0.78l0,0h-5.87c-0.43,0-0.78-0.34-0.79-0.77c0,0,0,0,0,0V33.64c0-0.43,0.35-0.78,0.78-0.78h20.76
	c0.43,0,0.78,0.35,0.78,0.78v0v4.99c0,0.43-0.35,0.78-0.78,0.78l0,0H277.64z"/>
<path class="st4" d="M357.84,39.31v5.46h14.38c0.43,0,0.78,0.35,0.78,0.78v4.77c0,0.43-0.35,0.78-0.78,0.78l0,0h-14.38v5.19h14.38
	c0.43,0,0.78,0.35,0.78,0.78v0v4.88c0,0.43-0.35,0.78-0.78,0.78l0,0H351.2c-0.43,0-0.78-0.35-0.78-0.78V33.64
	c0-0.43,0.35-0.78,0.78-0.78h21.03c0.43,0,0.78,0.35,0.78,0.78v0v4.9c0,0.43-0.35,0.78-0.78,0.78l0,0H357.84z"/>
<path class="st4" d="M345.86,47.72c0,8.88-6.72,15.02-16.12,15.02h-11.22c-0.43,0-0.78-0.35-0.78-0.78V45.77
	c0-0.43,0.35-0.78,0.78-0.78h5.87c0.43,0.01,0.77,0.35,0.77,0.78v10.29h4.58c4.86,0,8.61-3.61,8.61-8.34
	c0.01-3.03-1.68-5.81-4.38-7.17c-1.31-0.67-2.76-1.01-4.23-1H318.5c-0.43,0-0.78-0.35-0.78-0.78v-5.11c0-0.43,0.35-0.78,0.78-0.78
	h11.23c8.3,0,14.51,4.76,15.85,11.9C345.76,45.74,345.86,46.73,345.86,47.72z"/>
</svg>
